<?xml version="1.0" encoding="UTF-8"?>
<!DOCTYPE svg PUBLIC "-//W3C//DTD SVG 1.1//EN" "http://www.w3.org/Graphics/SVG/1.1/DTD/svg11.dtd">
<svg xmlns="http://www.w3.org/2000/svg" version="1.1" width="666px" height="375px" style="shape-rendering:geometricPrecision; text-rendering:geometricPrecision; image-rendering:optimizeQuality; fill-rule:evenodd; clip-rule:evenodd" xmlns:xlink="http://www.w3.org/1999/xlink">
<g><path style="opacity:0.145" fill="#f5f0e8" d="M 196.5,99.5 C 196.897,98.475 197.563,98.3083 198.5,99C 197.906,99.4643 197.239,99.631 196.5,99.5 Z"/></g>
<g><path style="opacity:0.004" fill="#feff00" d="M 251.5,101.5 C 252.833,102.167 252.833,102.167 251.5,101.5 Z"/></g>
<g><path style="opacity:0.997" fill="#fbdb94" d="M 457.5,146.5 C 457.707,171.858 457.04,197.191 455.5,222.5C 453.584,223.248 451.584,223.248 449.5,222.5C 449.662,220.473 449.495,218.473 449,216.5C 448.503,218.81 448.337,221.143 448.5,223.5C 450.592,223.561 452.092,224.561 453,226.5C 453.499,230.152 453.665,233.818 453.5,237.5C 453.5,237.833 453.5,238.167 453.5,238.5C 450.888,240.052 449.555,242.386 449.5,245.5C 448.374,248.527 446.874,248.86 445,246.5C 441.518,250.395 439.685,254.729 439.5,259.5C 437.513,257.673 435.179,256.673 432.5,256.5C 432.205,260.077 433.205,263.243 435.5,266C 434.009,268.308 433.009,270.808 432.5,273.5C 431.058,274.82 430.392,276.486 430.5,278.5C 429.325,278.281 428.325,278.614 427.5,279.5C 426.806,282.088 425.64,284.421 424,286.5C 419.22,288.443 416.053,291.776 414.5,296.5C 412.733,298.89 410.4,300.557 407.5,301.5C 404.57,302.299 401.57,302.632 398.5,302.5C 398.747,304.858 398.081,306.858 396.5,308.5C 393.26,310.951 389.593,312.618 385.5,313.5C 382.751,313.726 380.084,313.393 377.5,312.5C 375.038,315.429 372.038,316.096 368.5,314.5C 367.692,314.808 367.025,315.308 366.5,316C 367.337,317.011 367.67,318.178 367.5,319.5C 347.335,323.685 327.002,324.518 306.5,322C 300.49,319.132 294.157,317.965 287.5,318.5C 283.838,318.277 280.505,317.277 277.5,315.5C 274.373,310.912 270.039,307.746 264.5,306C 263.663,304.989 263.33,303.822 263.5,302.5C 258.581,303.628 254.915,302.128 252.5,298C 248.831,296.342 245.165,294.842 241.5,293.5C 240.067,291.442 239.4,289.108 239.5,286.5C 238.127,286.657 236.793,286.49 235.5,286C 232.583,283.236 229.583,280.736 226.5,278.5C 224.1,276.704 222.433,274.37 221.5,271.5C 219.945,264.317 216.778,257.984 212,252.5C 210.892,248.914 210.392,245.247 210.5,241.5C 208.041,241.69 206.374,240.69 205.5,238.5C 204.596,237.791 204.263,236.791 204.5,235.5C 201.557,207.604 200.223,179.604 200.5,151.5C 201.572,135.631 209.905,126.131 225.5,123C 235.968,121.945 246.301,122.612 256.5,125C 263.891,128.458 268.057,134.291 269,142.5C 269.336,147.532 269.836,152.532 270.5,157.5C 270.333,174.17 270.5,190.837 271,207.5C 271.739,211.301 273.239,214.634 275.5,217.5C 276.338,217.842 276.672,218.508 276.5,219.5C 276.684,225.752 278.017,231.752 280.5,237.5C 282.242,239.973 284.075,239.973 286,237.5C 289.365,241.387 293.532,243.72 298.5,244.5C 299.031,246.624 300.365,248.124 302.5,249C 304.5,249.667 306.5,250.333 308.5,251C 315.776,251.537 322.942,252.704 330,254.5C 336.853,253.463 343.686,252.296 350.5,251C 357.299,248.132 363.965,244.965 370.5,241.5C 371.098,240.205 371.598,238.872 372,237.5C 376.377,231.632 381.044,225.965 386,220.5C 387.203,194.514 387.703,168.514 387.5,142.5C 387.826,139.689 388.659,137.022 390,134.5C 393.617,130.761 397.117,126.928 400.5,123C 409.536,122.096 418.536,120.93 427.5,119.5C 434.93,122.027 442.264,124.86 449.5,128C 453.055,133.85 455.722,140.016 457.5,146.5 Z"/></g>
<g><path style="opacity:0.174" fill="#fefefe" d="M 385.5,146.5 C 385.667,167.503 385.5,188.503 385,209.5C 384.79,211.058 384.29,212.391 383.5,213.5C 383.72,190.994 384.387,168.66 385.5,146.5 Z"/></g>
<g><path style="opacity:0.212" fill="#fbf1db" d="M 270.5,157.5 C 271.117,157.611 271.617,157.944 272,158.5C 272.333,173.167 272.667,187.833 273,202.5C 274.267,207.435 275.1,212.435 275.5,217.5C 273.239,214.634 271.739,211.301 271,207.5C 270.5,190.837 270.333,174.17 270.5,157.5 Z"/></g>
<g><path style="opacity:0.224" fill="#f7f3ea" d="M 198.5,156.5 C 198.5,173.167 198.5,189.833 198.5,206.5C 196.962,197.218 196.295,187.718 196.5,178C 196.667,171.167 196.833,164.333 197,157.5C 197.383,156.944 197.883,156.611 198.5,156.5 Z"/></g>
<g><path style="opacity:0.496" fill="#e2d1ad" d="M 200.5,151.5 C 200.223,179.604 201.557,207.604 204.5,235.5C 203.883,235.389 203.383,235.056 203,234.5C 200.128,225.385 198.628,216.052 198.5,206.5C 198.5,189.833 198.5,173.167 198.5,156.5C 198.402,154.447 199.069,152.78 200.5,151.5 Z"/></g>
<g><path style="opacity:0.794" fill="#efe0bd" d="M 457.5,146.5 C 458.15,146.804 458.817,147.137 459.5,147.5C 460.421,165.724 460.755,183.891 460.5,202C 459.607,208.814 458.774,215.648 458,222.5C 457.13,227.804 455.63,232.804 453.5,237.5C 453.665,233.818 453.499,230.152 453,226.5C 452.092,224.561 450.592,223.561 448.5,223.5C 448.337,221.143 448.503,218.81 449,216.5C 449.495,218.473 449.662,220.473 449.5,222.5C 451.584,223.248 453.584,223.248 455.5,222.5C 457.04,197.191 457.707,171.858 457.5,146.5 Z"/></g>
<g><path style="opacity:0.819" fill="#f3e0b4" d="M 276.5,219.5 C 281.744,229.643 289.078,237.977 298.5,244.5C 293.532,243.72 289.365,241.387 286,237.5C 284.075,239.973 282.242,239.973 280.5,237.5C 278.017,231.752 276.684,225.752 276.5,219.5 Z"/></g>
<g><path style="opacity:0.392" fill="#f1ead8" d="M 453.5,238.5 C 452.925,241.912 451.592,244.912 449.5,247.5C 449.5,246.833 449.5,246.167 449.5,245.5C 449.555,242.386 450.888,240.052 453.5,238.5 Z"/></g>
<g><path style="opacity:0.643" fill="#efdfbe" d="M 387.5,142.5 C 387.703,168.514 387.203,194.514 386,220.5C 381.044,225.965 376.377,231.632 372,237.5C 371.598,238.872 371.098,240.205 370.5,241.5C 363.965,244.965 357.299,248.132 350.5,251C 343.686,252.296 336.853,253.463 330,254.5C 322.942,252.704 315.776,251.537 308.5,251C 306.5,250.333 304.5,249.667 302.5,249C 300.365,248.124 299.031,246.624 298.5,244.5C 324.233,255.879 348.4,253.212 371,236.5C 373.707,232.254 376.54,228.087 379.5,224C 380.651,220.351 381.984,216.851 383.5,213.5C 384.29,212.391 384.79,211.058 385,209.5C 385.5,188.503 385.667,167.503 385.5,146.5C 385.229,144.62 385.896,143.287 387.5,142.5 Z"/></g>
<g><path style="opacity:0.558" fill="#eee1c5" d="M 205.5,238.5 C 206.374,240.69 208.041,241.69 210.5,241.5C 210.392,245.247 210.892,248.914 212,252.5C 216.778,257.984 219.945,264.317 221.5,271.5C 213.277,262.05 207.943,251.05 205.5,238.5 Z"/></g>
<g><path style="opacity:0.868" fill="#f8e0aa" d="M 449.5,245.5 C 449.5,246.167 449.5,246.833 449.5,247.5C 446.966,253.922 444.133,260.256 441,266.5C 440.26,268.319 439.093,269.652 437.5,270.5C 435.668,271.248 434.001,272.248 432.5,273.5C 433.009,270.808 434.009,268.308 435.5,266C 433.205,263.243 432.205,260.077 432.5,256.5C 435.179,256.673 437.513,257.673 439.5,259.5C 439.685,254.729 441.518,250.395 445,246.5C 446.874,248.86 448.374,248.527 449.5,245.5 Z"/></g>
<g><path style="opacity:0.635" fill="#e2dbc4" d="M 226.5,278.5 C 229.583,280.736 232.583,283.236 235.5,286C 236.793,286.49 238.127,286.657 239.5,286.5C 239.4,289.108 240.067,291.442 241.5,293.5C 235.5,289.5 230.5,284.5 226.5,278.5 Z"/></g>
<g><path style="opacity:0.424" fill="#f2e6ce" d="M 437.5,270.5 C 432,281.005 424.333,289.672 414.5,296.5C 416.053,291.776 419.22,288.443 424,286.5C 425.64,284.421 426.806,282.088 427.5,279.5C 428.325,278.614 429.325,278.281 430.5,278.5C 430.392,276.486 431.058,274.82 432.5,273.5C 434.001,272.248 435.668,271.248 437.5,270.5 Z"/></g>
<g><path style="opacity:0.358" fill="#faf2e0" d="M 407.5,301.5 C 404.35,304.579 400.683,306.913 396.5,308.5C 398.081,306.858 398.747,304.858 398.5,302.5C 401.57,302.632 404.57,302.299 407.5,301.5 Z"/></g>
<g><path style="opacity:0.734" fill="#f2e1b9" d="M 241.5,293.5 C 245.165,294.842 248.831,296.342 252.5,298C 254.915,302.128 258.581,303.628 263.5,302.5C 263.33,303.822 263.663,304.989 264.5,306C 270.039,307.746 274.373,310.912 277.5,315.5C 267.749,311.458 258.416,306.625 249.5,301C 246.568,298.715 243.902,296.215 241.5,293.5 Z"/></g>
<g><path style="opacity:0.42" fill="#f1e3c5" d="M 385.5,313.5 C 373.02,319.821 359.686,323.655 345.5,325C 325.519,327.202 306.186,325.035 287.5,318.5C 294.157,317.965 300.49,319.132 306.5,322C 327.002,324.518 347.335,323.685 367.5,319.5C 367.67,318.178 367.337,317.011 366.5,316C 367.025,315.308 367.692,314.808 368.5,314.5C 372.038,316.096 375.038,315.429 377.5,312.5C 380.084,313.393 382.751,313.726 385.5,313.5 Z"/></g>
</svg>
