<?xml version="1.0" encoding="UTF-8"?>
<!DOCTYPE svg PUBLIC "-//W3C//DTD SVG 1.1//EN" "http://www.w3.org/Graphics/SVG/1.1/DTD/svg11.dtd">
<svg xmlns="http://www.w3.org/2000/svg" version="1.1" width="623px" height="626px" style="shape-rendering:geometricPrecision; text-rendering:geometricPrecision; image-rendering:optimizeQuality; fill-rule:evenodd; clip-rule:evenodd" xmlns:xlink="http://www.w3.org/1999/xlink">
<g><path style="opacity:0.845" fill="#030303" d="M 225.5,239.5 C 234.189,239.573 242.855,240.073 251.5,241C 253.949,241.725 256.283,242.725 258.5,244C 267.194,252.021 274.36,261.187 280,271.5C 282.228,279.631 281.895,287.631 279,295.5C 276.042,299.145 272.375,301.812 268,303.5C 265.562,308.267 262.729,312.767 259.5,317C 256.649,318.289 253.649,318.789 250.5,318.5C 252.245,324.738 253.578,331.071 254.5,337.5C 252.899,349.577 247.066,358.91 237,365.5C 234.409,377.754 227.242,385.92 215.5,390C 203.97,392.045 193.97,389.045 185.5,381C 180.833,379 176.167,377 171.5,375C 167.465,371.3 163.798,367.3 160.5,363C 153.165,360.33 148.665,355.163 147,347.5C 143.82,343.655 140.653,339.822 137.5,336C 138.851,327.396 140.684,318.896 143,310.5C 152.746,293.758 166.579,281.592 184.5,274C 188.114,273.055 191.781,272.388 195.5,272C 196,271.5 196.5,271 197,270.5C 197.725,265.748 198.725,261.081 200,256.5C 205.359,252.738 211.192,249.904 217.5,248C 218.525,245.929 219.358,243.762 220,241.5C 221.948,240.891 223.782,240.224 225.5,239.5 Z"/></g>
<g><path style="opacity:0.99" fill="#fafafa" d="M 229.5,242.5 C 243.514,241.099 255.347,245.432 265,255.5C 266.907,259.41 269.573,262.744 273,265.5C 274.993,269.465 276.993,273.465 279,277.5C 281.395,286.205 279.228,293.372 272.5,299C 270.888,299.72 269.388,299.554 268,298.5C 266.542,294.585 265.376,290.585 264.5,286.5C 268.365,283.824 268.032,281.491 263.5,279.5C 263.167,281.167 262.833,282.833 262.5,284.5C 263.297,289.817 263.963,295.151 264.5,300.5C 264.275,310.946 258.941,315.946 248.5,315.5C 245.874,310.55 244.04,305.217 243,299.5C 234.351,288.511 224.185,279.345 212.5,272C 209.684,270.353 207.184,270.52 205,272.5C 204.228,272.355 203.561,272.022 203,271.5C 199.703,260.819 203.536,254.986 214.5,254C 223.186,253.832 231.852,253.332 240.5,252.5C 239.672,251.585 238.672,250.919 237.5,250.5C 232.383,252.806 227.049,253.139 221.5,251.5C 221.5,249.833 221.5,248.167 221.5,246.5C 224.41,245.575 227.076,244.241 229.5,242.5 Z"/></g>
<g><path style="opacity:0.994" fill="#fcfcfc" d="M 189.5,275.5 C 197.507,275.334 205.507,275.5 213.5,276C 226.169,285.997 236.669,297.83 245,311.5C 246.657,316.819 248.323,322.153 250,327.5C 251.384,333.109 251.717,338.775 251,344.5C 247.045,349.578 243.211,354.744 239.5,360C 238.056,360.781 236.723,360.614 235.5,359.5C 233.781,356.86 232.948,354.193 233,351.5C 220.169,357.144 215.002,366.811 217.5,380.5C 218.086,380.291 218.586,379.957 219,379.5C 217.959,371.282 220.459,364.449 226.5,359C 228.701,358.175 230.534,358.675 232,360.5C 232.577,364.888 232.244,369.221 231,373.5C 221.25,389.928 208.25,392.928 192,382.5C 190.767,380.134 189.934,377.634 189.5,375C 190.567,368.527 190.734,362.027 190,355.5C 186.165,351.664 185.165,352.331 187,357.5C 187.667,362.833 187.667,368.167 187,373.5C 182.796,374.898 178.629,374.731 174.5,373C 165.241,364.315 161.575,353.482 163.5,340.5C 162.67,346.472 162.17,352.472 162,358.5C 159.816,359.108 157.816,358.441 156,356.5C 154.289,354.044 152.956,351.377 152,348.5C 152.324,340.088 151.324,331.755 149,323.5C 148.182,326.107 147.682,328.774 147.5,331.5C 148.224,334.827 148.39,338.161 148,341.5C 145.108,339.606 143.441,336.939 143,333.5C 142.574,323.296 144.574,313.629 149,304.5C 156.78,298.354 164.28,291.854 171.5,285C 177.435,281.535 183.435,278.368 189.5,275.5 Z"/></g>
</svg>
